<?xml version="1.0" standalone="no"?>
<!DOCTYPE svg PUBLIC "-//W3C//DTD SVG 20010904//EN"
 "http://www.w3.org/TR/2001/REC-SVG-20010904/DTD/svg10.dtd">
<svg version="1.0" xmlns="http://www.w3.org/2000/svg"
 width="700.000000pt" height="700.000000pt" viewBox="0 0 700.000000 700.000000"
 preserveAspectRatio="xMidYMid meet">
<metadata>
Created by potrace 1.14, written by Peter Selinger 2001-2017
</metadata>
<g transform="translate(0.000000,700.000000) scale(0.100000,-0.100000)"
fill="#000000" stroke="none">
<path d="M126 6709 c-85 -24 -111 -123 -50 -194 14 -16 66 -71 115 -121 79
-81 89 -95 85 -120 -3 -16 -8 -49 -11 -74 -3 -25 -9 -70 -15 -100 -5 -30 -12
-75 -15 -100 -3 -25 -11 -74 -16 -110 -6 -36 -12 -81 -15 -100 -2 -19 -7 -46
-9 -60 -3 -14 -9 -59 -15 -101 -6 -41 -13 -86 -15 -100 -3 -13 -7 -44 -11 -69
-3 -25 -9 -70 -14 -100 -5 -30 -12 -75 -15 -100 -4 -25 -12 -85 -20 -135 -8
-49 -16 -106 -19 -125 -3 -19 -12 -78 -20 -130 -8 -52 -17 -111 -20 -130 -9
-64 -28 -195 -32 -213 -15 -81 -14 -134 3 -164 10 -17 119 -137 243 -265 124
-128 282 -291 351 -363 69 -71 180 -186 246 -255 66 -69 144 -150 173 -180 29
-30 148 -154 264 -274 116 -120 227 -235 246 -255 76 -80 488 -508 540 -562
30 -31 147 -152 260 -270 113 -117 230 -238 260 -269 30 -31 109 -113 175
-181 66 -69 217 -226 336 -350 119 -123 247 -255 284 -294 37 -38 162 -168
278 -289 116 -120 216 -224 222 -232 12 -15 74 -41 93 -38 6 1 21 2 32 3 11 0
70 49 132 108 61 60 132 128 158 153 26 25 152 146 280 270 129 124 250 241
270 260 59 56 492 473 630 606 209 203 232 224 240 224 4 0 28 -9 52 -20 183
-81 446 -82 651 -2 289 112 516 393 555 687 15 106 6 299 -16 355 -5 14 -10
30 -11 35 -6 51 -63 171 -120 255 -274 401 -827 504 -1233 229 -32 -22 -62
-39 -66 -39 -5 0 -48 42 -96 93 -49 50 -183 191 -300 311 -116 120 -231 240
-256 265 -100 104 -459 477 -514 535 -32 33 -154 160 -270 280 -116 120 -236
245 -266 276 -30 31 -152 158 -270 280 -118 123 -231 240 -250 260 -19 20
-132 137 -250 259 -118 123 -241 251 -274 285 -229 239 -311 318 -334 327 -23
9 -126 7 -269 -6 -24 -2 -96 -6 -160 -10 -65 -4 -134 -8 -153 -10 -19 -2 -84
-6 -145 -9 -104 -6 -183 -11 -320 -21 -33 -2 -103 -7 -155 -10 -52 -3 -117 -8
-145 -10 -27 -2 -102 -7 -165 -10 -63 -4 -133 -8 -155 -10 -22 -2 -94 -6 -160
-10 -66 -4 -134 -8 -152 -10 -28 -2 -41 8 -139 112 -60 63 -115 118 -124 122
-28 15 -65 19 -94 10z m2266 -376 c10 -9 18 -21 18 -28 0 -7 -42 -52 -92 -100
-51 -48 -194 -185 -317 -304 -123 -119 -250 -241 -282 -271 -31 -30 -117 -113
-191 -185 -188 -182 -583 -562 -633 -610 -169 -161 -483 -464 -502 -484 l-22
-23 -63 64 c-62 64 -63 65 -57 109 20 134 61 408 64 429 4 23 35 229 50 335 3
22 8 51 10 65 3 14 7 43 10 65 5 39 14 99 21 140 1 11 8 56 14 100 7 44 14 89
16 100 2 10 6 37 9 60 3 22 8 51 10 65 2 14 7 45 10 70 4 25 9 59 12 75 3 17
6 40 6 53 1 12 4 22 7 22 3 0 35 -31 70 -68 113 -119 104 -102 84 -168 -21
-73 -15 -180 14 -247 29 -65 101 -138 169 -172 142 -70 332 -31 427 87 38 47
40 50 52 78 29 64 33 84 31 162 -2 65 -8 95 -29 140 -71 154 -244 236 -408
194 l-64 -17 -83 83 c-45 45 -81 83 -80 84 2 2 131 12 242 19 33 2 101 6 150
9 50 4 128 8 175 11 47 3 114 7 150 10 36 3 103 7 150 10 47 3 112 7 145 10
33 2 110 7 170 11 61 3 130 7 155 9 25 2 97 7 160 10 63 4 116 8 117 9 11 10
91 2 105 -11z m608 -633 c120 -124 241 -250 270 -280 29 -30 139 -144 244
-253 105 -109 220 -229 256 -266 36 -37 162 -168 280 -290 118 -123 235 -244
259 -270 24 -25 144 -149 266 -276 123 -126 246 -255 275 -285 29 -30 142
-149 253 -263 110 -114 217 -226 239 -249 l38 -41 -19 -31 c-219 -354 -178
-795 103 -1091 l57 -60 -109 -105 c-130 -125 -445 -428 -544 -523 l-70 -67
-780 0 -781 0 -59 63 c-33 34 -149 154 -258 267 -109 113 -226 234 -260 270
-34 36 -155 162 -269 280 -115 118 -229 238 -256 265 -26 28 -97 102 -158 165
-138 142 -567 588 -622 645 -37 39 -298 310 -605 629 -69 71 -146 151 -171
177 l-46 48 86 82 c47 45 183 175 301 289 118 114 238 229 265 255 49 46 373
358 644 621 75 72 157 151 182 175 61 58 450 433 518 500 l54 52 100 -104 c55
-57 198 -205 317 -329z m-1965 148 c41 -18 68 -72 62 -120 -19 -143 -227 -132
-230 13 -2 86 88 144 168 107z m5238 -2502 c184 -50 332 -171 417 -342 53
-106 69 -183 65 -314 -5 -170 -61 -303 -180 -425 -134 -138 -299 -206 -489
-200 -254 9 -486 170 -582 405 -23 56 -28 76 -43 170 -17 106 9 255 63 363 90
178 261 310 451 350 85 17 218 14 298 -7z m-1723 -2233 c0 -1 -6 -8 -14 -15
-121 -117 -310 -300 -414 -401 l-132 -128 -58 60 c-31 33 -133 139 -227 237
-93 97 -185 192 -202 209 -18 18 -31 34 -29 36 4 4 1076 6 1076 2z"/>
<path d="M2171 5399 c-14 -9 -66 -56 -116 -104 -49 -48 -177 -171 -284 -274
-313 -301 -330 -318 -337 -357 -10 -53 9 -83 130 -208 143 -147 187 -171 321
-171 79 0 97 3 145 28 112 57 188 156 203 266 3 21 12 27 60 38 116 26 199 90
248 188 56 115 49 252 -18 352 -41 61 -219 242 -248 253 -34 13 -72 9 -104
-11z m105 -316 c58 -59 74 -94 63 -140 -15 -67 -81 -109 -144 -91 -16 4 -53
31 -82 60 l-53 52 82 83 c46 46 84 83 85 83 1 0 23 -21 49 -47z m-337 -335
c28 -28 53 -65 57 -81 17 -81 -33 -147 -113 -147 -41 0 -50 5 -106 59 l-62 60
85 80 c47 44 86 80 87 81 1 0 24 -23 52 -52z"/>
<path d="M2750 4803 c-14 -9 -59 -49 -100 -89 -41 -40 -105 -101 -142 -136
-367 -350 -488 -473 -497 -504 -19 -68 20 -130 91 -148 55 -13 77 3 280 203
73 70 79 74 95 59 15 -16 11 -32 -62 -240 -44 -123 -79 -238 -78 -255 3 -108
143 -148 211 -61 12 15 59 141 125 336 16 48 25 61 37 56 8 -4 46 -8 84 -9
233 -8 409 213 350 442 -8 32 -29 79 -47 105 -41 59 -204 227 -237 245 -34 18
-81 16 -110 -4z m111 -325 c68 -75 76 -136 24 -192 -60 -65 -136 -44 -230 63
l-19 22 79 79 c44 43 84 79 89 79 5 1 31 -23 57 -51z"/>
<path d="M3600 3961 c-25 -8 -248 -102 -345 -146 -27 -13 -178 -78 -335 -145
-157 -67 -293 -131 -303 -141 -46 -49 -43 -120 7 -166 47 -43 85 -43 187 2 44
19 84 35 88 35 10 0 31 -20 159 -153 l103 -107 -41 -88 c-23 -48 -42 -99 -42
-114 -3 -92 100 -154 175 -104 37 24 69 85 298 571 26 55 79 168 119 250 46
95 74 165 75 190 3 49 -24 91 -71 111 -37 15 -38 16 -74 5z m-274 -477 l-56
-116 -65 68 c-35 37 -63 69 -62 70 1 1 40 19 87 39 47 20 98 43 115 50 16 8
31 12 34 10 2 -2 -22 -57 -53 -121z"/>
<path d="M4094 3449 c-17 -5 -57 -34 -90 -65 -134 -128 -494 -475 -581 -560
-55 -54 -94 -100 -94 -113 -4 -66 -2 -76 26 -109 34 -41 92 -51 140 -25 19 10
89 72 157 138 68 66 153 148 190 183 l66 63 -35 -138 c-19 -76 -36 -145 -38
-153 -2 -8 -24 -98 -50 -200 -26 -102 -48 -200 -49 -218 -5 -68 69 -131 138
-118 37 7 44 14 316 276 117 113 266 257 332 320 135 130 149 158 118 227 -27
60 -96 85 -155 55 -16 -8 -77 -61 -135 -117 -161 -158 -274 -264 -277 -262 -1
2 37 158 85 349 64 253 85 355 81 378 -13 63 -82 105 -145 89z"/>
<path d="M4725 2751 c-16 -10 -64 -51 -105 -91 -347 -334 -493 -475 -556 -536
-112 -111 -111 -150 11 -275 115 -119 239 -187 370 -205 320 -43 609 163 668
478 37 200 -22 379 -180 547 -100 104 -144 122 -208 82z m88 -308 c46 -68 62
-122 62 -208 -1 -141 -71 -252 -201 -316 -123 -61 -279 -40 -383 50 l-24 21
159 153 c284 275 349 336 355 337 4 0 18 -17 32 -37z"/>
<path d="M5990 3100 c0 -49 -2 -90 -5 -90 -2 0 -31 28 -65 62 l-60 62 -31 -30
c-18 -16 -56 -54 -85 -84 l-54 -55 60 -60 c33 -33 60 -63 60 -66 0 -4 -39 -6
-87 -5 l-88 1 -1 -115 c0 -63 4 -118 8 -121 5 -3 45 -5 88 -3 44 1 80 0 80 -4
0 -4 -27 -34 -60 -67 l-60 -61 54 -54 c30 -30 68 -68 84 -84 l31 -28 63 62 63
63 3 -92 3 -91 118 0 118 0 1 73 c0 39 1 81 1 92 1 15 15 5 66 -45 l65 -64 80
79 c44 44 80 84 80 89 0 5 -27 36 -60 68 -33 33 -60 61 -60 62 0 2 39 2 86 1
47 0 88 3 91 9 3 5 7 58 7 118 1 89 -2 108 -14 109 -8 1 -46 2 -85 4 -38 1
-73 3 -77 3 -4 1 21 30 57 65 l64 63 -84 84 -85 84 -65 -64 c-38 -38 -65 -58
-66 -50 -1 8 -1 50 -1 93 l0 77 -119 0 -119 0 0 -90z"/>
</g>
</svg>
